<svg width="280" height="280" viewBox="0 0 280 280" fill="none" xmlns="http://www.w3.org/2000/svg">
<path d="M261.458 177.072H169.68V123.962H261.458V177.072ZM170.24 176.512H260.898V124.522H170.24V176.512Z" fill="#E0E0E0"/>
<path d="M242.525 152.281H181.972V154.056H242.525V152.281Z" fill="#F0F0F0"/>
<path d="M246.697 158.9H181.972V160.838H246.697V158.9Z" fill="#F0F0F0"/>
<path d="M246.697 165.598H181.972V167.535H246.697V165.598Z" fill="#F0F0F0"/>
<path d="M203.134 142.666H181.972V147.275H203.134V142.666Z" fill="#F0F0F0"/>
<path d="M261.178 124.242H169.977V132.698H261.178V124.242Z" fill="#E0E0E0"/>
<path d="M254.162 131.432C254.044 131.32 255.22 129.903 256.782 128.268C258.345 126.633 259.717 125.395 259.829 125.502C259.941 125.608 258.77 127.031 257.208 128.671C255.646 130.312 254.274 131.544 254.162 131.432Z" fill="white"/>
<path d="M259.84 131.432C259.728 131.544 258.361 130.312 256.793 128.671C255.225 127.031 254.055 125.614 254.173 125.502C254.29 125.39 255.651 126.622 257.219 128.268C258.787 129.915 259.946 131.32 259.84 131.432Z" fill="white"/>
<path d="M148.523 19.0681H57.3215V71.6241H148.523V19.0681Z" fill="#E6E6E6"/>
<path d="M129.875 47.113H69.3223V48.8882H129.875V47.113Z" fill="#F0F0F0"/>
<path d="M134.047 53.7322H69.3223V55.6698H134.047V53.7322Z" fill="#F0F0F0"/>
<path d="M134.047 60.4297H69.3223V62.3673H134.047V60.4297Z" fill="#F0F0F0"/>
<path d="M90.4847 37.4978H69.3223V42.1066H90.4847V37.4978Z" fill="#F0F0F0"/>
<path d="M148.523 19.0681H57.3215V27.5241H148.523V19.0681Z" fill="#E0E0E0"/>
<path d="M141.198 26.2194C141.081 26.113 142.257 24.6906 143.819 23.0554C145.381 21.4202 146.753 20.1826 146.865 20.2946C146.977 20.4066 145.807 21.8234 144.245 23.4586C142.682 25.0938 141.31 26.3202 141.198 26.2194Z" fill="white"/>
<path d="M146.866 26.2192C146.754 26.3312 145.387 25.0992 143.819 23.4584C142.251 21.8176 141.081 20.4064 141.198 20.2944C141.316 20.1824 142.677 21.4144 144.245 23.0552C145.813 24.696 146.983 26.1128 146.866 26.2192Z" fill="white"/>
<path d="M113.982 116.699H22.2207V63.5825H113.982V116.699ZM22.7807 116.139H113.422V64.1425H22.7807V116.139Z" fill="#E0E0E0"/>
<path d="M95.0543 91.9072H34.5015V93.6824H95.0543V91.9072Z" fill="#F0F0F0"/>
<path d="M99.2263 98.5266H34.5015V100.464H99.2263V98.5266Z" fill="#F0F0F0"/>
<path d="M99.2263 105.224H34.5015V107.162H99.2263V105.224Z" fill="#F0F0F0"/>
<path d="M55.6639 82.292H34.5015V86.9008H55.6639V82.292Z" fill="#F0F0F0"/>
<path d="M113.702 63.8625H22.5007V72.3185H113.702V63.8625Z" fill="#E0E0E0"/>
<path d="M219.884 128.867H112.196V225.277H219.884V128.867Z" fill="#E6E6E6"/>
<path d="M117.611 98.4985H33.2527V186.144H117.611V98.4985Z" fill="#F0F0F0"/>
<path d="M249.413 38.2368H141.725V145.566H249.413V38.2368Z" fill="#F0F0F0"/>
<path d="M249.413 38.2368H141.725V50.8088H249.413V38.2368Z" fill="#E0E0E0"/>
<path d="M150.897 44.3969C150.878 44.854 150.724 45.2952 150.456 45.6657C150.188 46.0362 149.816 46.3198 149.388 46.4812C148.96 46.6426 148.494 46.6747 148.048 46.5735C147.602 46.4723 147.195 46.2424 146.879 45.9121C146.562 45.5819 146.35 45.1659 146.267 44.7159C146.185 44.2659 146.237 43.8016 146.416 43.3808C146.595 42.9599 146.894 42.601 147.276 42.3486C147.658 42.0962 148.105 41.9614 148.562 41.9609C149.195 41.9756 149.795 42.2402 150.233 42.6967C150.671 43.1533 150.909 43.7646 150.897 44.3969Z" fill="white"/>
<path d="M159.673 42.7504C159.983 43.0875 160.188 43.5086 160.26 43.9611C160.333 44.4136 160.271 44.8775 160.082 45.295C159.893 45.7126 159.586 46.0653 159.198 46.3092C158.81 46.5531 158.359 46.6775 157.9 46.6668C157.442 46.6561 156.997 46.5108 156.621 46.2491C156.245 45.9873 155.954 45.6206 155.785 45.1947C155.615 44.7688 155.575 44.3025 155.669 43.8539C155.763 43.4054 155.987 42.9943 156.313 42.672C156.769 42.2377 157.379 42.0021 158.009 42.0168C158.639 42.0315 159.237 42.2953 159.673 42.7504Z" fill="white"/>
<path d="M169.814 44.3969C169.795 44.854 169.641 45.2952 169.373 45.6657C169.105 46.0362 168.733 46.3198 168.305 46.4812C167.877 46.6426 167.411 46.6747 166.965 46.5735C166.519 46.4723 166.112 46.2424 165.796 45.9121C165.479 45.5819 165.267 45.1659 165.184 44.7159C165.102 44.2659 165.154 43.8016 165.333 43.3808C165.512 42.9599 165.811 42.601 166.193 42.3486C166.575 42.0962 167.022 41.9614 167.479 41.9609C168.112 41.9756 168.712 42.2402 169.15 42.6967C169.588 43.1533 169.826 43.7646 169.814 44.3969Z" fill="white"/>
<path d="M226.15 253.753C226.15 253.831 187.264 253.899 139.311 253.899C91.3583 253.899 52.4551 253.831 52.4551 253.753C52.4551 253.675 91.3359 253.607 139.311 253.607C187.286 253.607 226.15 253.68 226.15 253.753Z" fill="#263238"/>
<path d="M208.062 33.4208L205.178 34.4512L203.941 30.6824C201.667 23.7328 194.421 20.0424 187.762 22.3888C181.104 24.7352 177.559 32.3568 179.833 39.3064L181.07 43.0751L178.175 44.1111C177.071 44.5394 176.175 45.3765 175.672 46.4487C175.169 47.5208 175.099 48.7454 175.476 49.868L183.501 74.3903C183.667 74.946 183.944 75.4626 184.314 75.9093C184.684 76.356 185.14 76.7237 185.655 76.9907C186.171 77.2576 186.734 77.4183 187.312 77.4632C187.891 77.5081 188.472 77.4362 189.022 77.2519L218.91 66.5615C220.028 66.1341 220.937 65.2895 221.446 64.2054C221.955 63.1213 222.023 61.8822 221.637 60.7487L213.606 36.2264C213.435 35.6722 213.155 35.1582 212.781 34.7149C212.407 34.2716 211.948 33.9083 211.43 33.6464C210.913 33.3846 210.348 33.2296 209.769 33.1909C209.191 33.1521 208.61 33.2303 208.062 33.4208ZM185.282 37.3408C184.669 35.5338 184.779 33.5596 185.589 31.832C186.399 30.1043 187.846 28.7571 189.627 28.0728C190.507 27.7718 191.438 27.6512 192.365 27.7179C193.292 27.7847 194.196 28.0376 195.024 28.4614C195.851 28.8853 196.585 29.4715 197.181 30.185C197.776 30.8985 198.222 31.7247 198.492 32.6144L199.724 36.3832L186.514 41.1096L185.282 37.3408ZM202.082 59.1023L204.131 65.3631C204.169 65.4887 204.157 65.6239 204.097 65.7407C204.038 65.8575 203.936 65.9469 203.812 65.9903L200.939 67.0151C200.825 67.0468 200.703 67.0331 200.598 66.9767C200.494 66.9203 200.415 66.8257 200.379 66.7127L198.313 60.4799C197.173 60.4179 196.08 60.0092 195.179 59.3086C194.279 58.608 193.613 57.649 193.273 56.5599C192.786 55.1202 192.875 53.5478 193.521 52.172C194.167 50.7962 195.32 49.7238 196.739 49.1791C197.44 48.9398 198.181 48.8439 198.92 48.8972C199.658 48.9506 200.379 49.152 201.038 49.4896C201.697 49.8272 202.281 50.294 202.756 50.8622C203.23 51.4303 203.586 52.0883 203.801 52.7967C204.161 53.903 204.191 55.0904 203.887 56.2134C203.582 57.3364 202.957 58.3462 202.087 59.1191L202.082 59.1023Z" fill="#FC9C0C"/>
<path d="M205.05 34.3841C205.05 34.4625 199.702 36.4729 193.049 38.8641C186.396 41.2553 180.97 43.1761 180.942 43.1201C180.914 43.0641 186.29 41.0369 192.948 38.6401C199.607 36.2433 205.022 34.3113 205.05 34.3841Z" fill="#263238"/>
<path d="M211.4 35.4143C211.425 35.4629 211.445 35.5135 211.462 35.5655C211.507 35.6775 211.557 35.8231 211.624 36.0023C211.77 36.4111 211.971 36.9767 212.223 37.6823L214.374 43.9431C215.27 46.5975 216.339 49.7447 217.527 53.2391C218.087 54.9919 218.747 56.8175 219.363 58.7383C219.693 59.7281 219.835 60.7707 219.783 61.8127C219.736 62.3546 219.582 62.8818 219.33 63.3639C219.061 63.8444 218.701 64.2684 218.271 64.6127C217.406 65.2442 216.446 65.7338 215.427 66.0631L212.543 67.0991L207.083 69.0535L197.837 72.3463L191.593 74.5415L189.913 75.1015L189.465 75.2471C189.417 75.2684 189.366 75.2816 189.314 75.2863C189.314 75.2863 189.359 75.2863 189.454 75.2191L189.891 75.0455L191.571 74.4127L197.781 72.1279L207.01 68.7679L212.459 66.7967L215.343 65.7551C216.333 65.4392 217.265 64.9645 218.103 64.3495C218.503 64.03 218.838 63.6365 219.089 63.1903C219.326 62.7444 219.469 62.2545 219.509 61.7511C219.56 60.7471 219.424 59.7424 219.106 58.7887C218.501 56.8847 217.863 55.0423 217.286 53.2895C216.121 49.7895 215.046 46.6311 214.195 43.9767C213.343 41.3223 212.627 39.1887 212.134 37.6879C211.899 36.9543 211.719 36.3831 211.574 35.9687L211.439 35.5207C211.422 35.4868 211.409 35.4511 211.4 35.4143Z" fill="#263238"/>
<path d="M195.63 27.692C195.63 27.692 195.334 27.5464 194.785 27.3224C194.003 27.0218 193.175 26.8552 192.338 26.8296C191.096 26.787 189.861 27.0204 188.72 27.5128C187.333 28.126 186.147 29.1178 185.298 30.3744C184.444 31.6274 183.986 33.1082 183.982 34.6248C183.994 35.8678 184.183 37.1029 184.542 38.2928C184.834 39.312 185.136 40.124 185.338 40.6896C185.457 40.9769 185.554 41.2726 185.629 41.5744C185.47 41.3058 185.337 41.0226 185.231 40.7288C185.002 40.1688 184.671 39.3736 184.346 38.3488C183.948 37.1464 183.731 35.8912 183.702 34.6248C183.688 33.0509 184.157 31.5104 185.046 30.212C185.925 28.9095 187.159 27.887 188.602 27.2664C189.779 26.7713 191.053 26.5528 192.326 26.628C193.182 26.6716 194.023 26.8709 194.807 27.216C195.017 27.3127 195.219 27.425 195.412 27.552C195.492 27.587 195.565 27.6342 195.63 27.692Z" fill="#263238"/>
<path d="M195.888 49.6048C195.978 49.5506 196.071 49.5038 196.168 49.4648C196.448 49.3383 196.739 49.2353 197.036 49.1568C197.508 49.0175 197.995 48.9348 198.487 48.9104C199.155 48.8745 199.824 48.9755 200.452 49.2072C201.886 49.7112 203.202 51.1728 203.851 53.1272C204.163 54.176 204.163 55.2928 203.851 56.3416C203.506 57.48 202.887 58.5163 202.048 59.36L202.082 59.2088C202.827 61.2528 203.639 63.4704 204.479 65.7832L204.529 65.9232L204.389 65.9736L203.107 66.3992L200.307 67.3344L200.167 67.3792L200.122 67.2392C199.355 64.9208 198.515 62.7592 197.882 60.6368L198.005 60.732C196.91 60.6411 195.866 60.2302 195.003 59.5504C194.223 58.949 193.582 58.1846 193.127 57.3104C192.717 56.5352 192.512 55.6674 192.534 54.7904C192.56 53.8941 192.783 53.0146 193.189 52.2149C193.595 51.4152 194.172 50.7152 194.88 50.1648C195.172 49.9283 195.499 49.7393 195.849 49.6048C195.533 49.7925 195.226 49.9962 194.931 50.2152C194.153 50.8731 193.557 51.7196 193.2 52.6736C192.894 53.393 192.75 54.1713 192.78 54.9527C192.81 55.734 193.013 56.499 193.374 57.1928C193.821 58.0338 194.446 58.7675 195.205 59.3432C196.028 59.9893 197.023 60.3788 198.067 60.4632H198.162L198.19 60.5472C198.806 62.6304 199.651 64.8088 200.43 67.1384L200.245 67.0488L203.045 66.1136L204.322 65.6824L204.232 65.8728C203.398 63.56 202.591 61.3368 201.852 59.2928V59.2088L201.919 59.1416C202.733 58.3329 203.341 57.3397 203.689 56.2464C203.986 55.2431 203.986 54.1753 203.689 53.172C203.079 51.2904 201.819 49.8624 200.452 49.3584C199.847 49.1252 199.202 49.0166 198.554 49.0392C198.07 49.0503 197.589 49.116 197.12 49.2352C196.286 49.4424 195.894 49.6328 195.888 49.6048Z" fill="#263238"/>
<path d="M178.578 211.299L122.64 211.042C119.41 211.024 116.318 209.725 114.045 207.429C111.772 205.134 110.503 202.03 110.516 198.8L111.11 58.5704C111.116 56.97 111.438 55.3865 112.057 53.9106C112.676 52.4346 113.58 51.0951 114.717 49.9686C115.853 48.8421 117.201 47.9508 118.683 47.3454C120.164 46.7401 121.751 46.4327 123.351 46.4408L179.284 46.6984C182.514 46.7147 185.606 48.0125 187.88 50.3067C190.155 52.6009 191.425 55.704 191.414 58.9344L190.82 199.158C190.813 200.759 190.491 202.343 189.873 203.82C189.254 205.296 188.35 206.637 187.214 207.764C186.077 208.891 184.729 209.784 183.248 210.39C181.766 210.997 180.179 211.306 178.578 211.299Z" fill="#1A1A1A"/>
<path d="M179.2 51.5201H168.358C168.005 51.5267 167.656 51.6029 167.331 51.7443C167.007 51.8858 166.714 52.0898 166.468 52.3446C166.223 52.5994 166.03 52.9001 165.901 53.2294C165.772 53.5588 165.709 53.9104 165.715 54.2641V56.2297C165.722 56.5832 165.659 56.9345 165.53 57.2636C165.4 57.5926 165.207 57.8929 164.962 58.1473C164.716 58.4017 164.423 58.6051 164.099 58.7459C163.774 58.8868 163.426 58.9623 163.072 58.9681L141.938 58.8729C141.223 58.8539 140.545 58.5518 140.052 58.0331C139.56 57.5145 139.293 56.8215 139.311 56.1065V54.1409C139.329 53.4269 139.064 52.7348 138.572 52.2163C138.081 51.6977 137.404 51.3951 136.69 51.3745H132.877L123.385 51.3297C121.127 51.3163 118.956 52.198 117.347 53.7818C115.738 55.3657 114.822 57.5225 114.8 59.7801L114.24 196.655C114.235 197.775 114.45 198.885 114.874 199.922C115.298 200.959 115.922 201.902 116.71 202.698C117.499 203.493 118.436 204.126 119.469 204.559C120.502 204.992 121.61 205.218 122.73 205.223L178.55 205.481C179.671 205.486 180.782 205.27 181.819 204.846C182.857 204.422 183.801 203.798 184.597 203.009C185.393 202.22 186.026 201.282 186.459 200.249C186.893 199.215 187.119 198.106 187.124 196.986L187.684 60.1105C187.697 57.8465 186.811 55.6699 185.22 54.059C183.629 52.4481 181.464 51.5349 179.2 51.5201Z" fill="white"/>
<path d="M171.69 187.219L130.183 187.04C129.752 187.04 129.405 186.57 129.41 185.998L129.455 175.14C129.455 174.58 129.808 174.098 130.239 174.098L171.746 174.289C171.985 174.33 172.199 174.462 172.343 174.657C172.487 174.852 172.55 175.095 172.519 175.336L172.48 186.183C172.48 186.76 172.122 187.225 171.69 187.219Z" fill="#FC9C0C"/>
<path d="M138.462 91.7563L124.059 91.6909L124.047 94.3341L138.45 94.3994L138.462 91.7563Z" fill="#FC9C0C"/>
<path opacity="0.1" d="M138.462 91.7563L124.059 91.6909L124.047 94.3341L138.45 94.3994L138.462 91.7563Z" fill="black"/>
<path d="M180.684 107.985C180.797 107.973 180.908 107.947 181.014 107.906C181.169 107.846 181.304 107.743 181.403 107.609C181.502 107.475 181.562 107.316 181.574 107.15C181.574 106.26 181.574 104.961 181.574 103.292C181.574 102.458 181.574 101.522 181.574 100.492C181.574 100.24 181.574 99.9767 181.574 99.7135C181.611 99.4581 181.555 99.1981 181.418 98.9799C181.34 98.8753 181.24 98.79 181.125 98.7307C181.009 98.6715 180.881 98.6398 180.751 98.6383H179.878H171.786L124.947 98.4647C124.827 98.4627 124.709 98.4896 124.601 98.5432C124.494 98.5969 124.402 98.6756 124.331 98.7727C124.196 98.9918 124.144 99.2522 124.186 99.5063C124.186 100.066 124.186 100.626 124.186 101.186C124.186 102.306 124.186 103.426 124.186 104.546C124.186 105.106 124.186 105.666 124.186 106.226C124.162 106.487 124.162 106.749 124.186 107.01C124.215 107.122 124.27 107.226 124.345 107.313C124.421 107.4 124.516 107.469 124.622 107.514C124.733 107.558 124.851 107.579 124.97 107.576H127.82L140.258 107.643L161.314 107.772L175.51 107.884L179.368 107.929H180.37C180.6 107.929 180.712 107.929 180.712 107.929H180.37H179.368H175.51H161.314L140.258 107.862L127.82 107.811H124.97C124.813 107.817 124.656 107.791 124.51 107.733C124.363 107.67 124.232 107.574 124.127 107.453C124.022 107.331 123.946 107.188 123.906 107.033C123.873 106.886 123.862 106.735 123.872 106.585V106.17C123.872 105.61 123.872 105.05 123.872 104.49C123.872 103.37 123.872 102.25 123.872 101.13C123.872 100.57 123.872 100.01 123.872 99.4503C123.861 99.3012 123.861 99.1514 123.872 99.0023C123.893 98.8376 123.957 98.6812 124.057 98.5487C124.153 98.4135 124.281 98.3037 124.43 98.2286C124.578 98.1536 124.742 98.1154 124.908 98.1175L171.746 98.3751L179.838 98.4311H180.712C180.866 98.4312 181.018 98.4684 181.154 98.5396C181.29 98.6108 181.408 98.7138 181.496 98.8399C181.654 99.0834 181.718 99.376 181.675 99.6631C181.675 99.9263 181.675 100.19 181.675 100.442C181.675 101.461 181.675 102.396 181.675 103.242C181.675 104.922 181.636 106.21 181.625 107.106C181.611 107.278 181.548 107.443 181.444 107.58C181.34 107.718 181.199 107.824 181.037 107.884C180.931 107.95 180.809 107.984 180.684 107.985Z" fill="#E0E0E0"/>
<path d="M154.728 101.276H128.385V103.745H154.728V101.276Z" fill="#FC9C0C"/>
<path opacity="0.2" d="M154.728 101.276H128.385V103.745H154.728V101.276Z" fill="white"/>
<path d="M138.364 115.869L123.961 115.804L123.949 118.447L138.352 118.512L138.364 115.869Z" fill="#FC9C0C"/>
<path opacity="0.1" d="M138.364 115.869L123.961 115.804L123.949 118.447L138.352 118.512L138.364 115.869Z" fill="black"/>
<path d="M180.32 132.099C180.433 132.085 180.545 132.064 180.656 132.037C180.812 131.987 180.956 131.904 181.078 131.794C181.2 131.684 181.296 131.549 181.362 131.399C181.45 131.172 181.484 130.929 181.462 130.687C181.462 130.419 181.462 130.127 181.462 129.803C181.462 129.153 181.462 128.414 181.462 127.563V124.007C181.489 123.749 181.432 123.49 181.3 123.267C181.162 123.039 180.945 122.87 180.69 122.791C180.411 122.742 180.127 122.727 179.844 122.747H171.786L125.11 122.573C124.859 122.574 124.616 122.665 124.428 122.831C124.239 122.997 124.117 123.226 124.085 123.475C124.085 124.007 124.085 124.595 124.085 125.155C124.085 126.275 124.085 127.395 124.085 128.515C124.085 129.075 124.085 129.635 124.085 130.195C124.064 130.456 124.075 130.72 124.118 130.979C124.188 131.206 124.332 131.403 124.527 131.539C124.734 131.67 124.977 131.733 125.222 131.718H126H127.618L140.011 131.779L160.994 131.908L175.14 132.02L178.987 132.065H175.14H160.994L140 132.043L127.607 131.998H125.171C124.868 132.016 124.568 131.935 124.314 131.768C124.06 131.592 123.874 131.332 123.788 131.035C123.738 130.75 123.723 130.46 123.743 130.172C123.743 129.612 123.743 129.052 123.743 128.492C123.743 127.372 123.743 126.252 123.743 125.132C123.743 124.572 123.743 124.012 123.743 123.452C123.784 123.132 123.94 122.838 124.182 122.624C124.425 122.411 124.736 122.293 125.059 122.293L171.735 122.551L179.794 122.612C180.094 122.594 180.395 122.614 180.69 122.674C180.981 122.769 181.226 122.968 181.378 123.234C181.523 123.48 181.586 123.767 181.558 124.051C181.558 124.315 181.558 124.572 181.558 124.83C181.558 125.843 181.558 126.773 181.558 127.63C181.558 128.487 181.558 129.209 181.558 129.87C181.558 130.189 181.558 130.486 181.558 130.76C181.578 131.011 181.538 131.262 181.44 131.494C181.367 131.648 181.262 131.785 181.132 131.895C181.001 132.006 180.849 132.086 180.684 132.132C180.562 132.142 180.438 132.131 180.32 132.099Z" fill="#E0E0E0"/>
<path d="M138.256 141.029L123.853 140.964L123.841 143.607L138.244 143.672L138.256 141.029Z" fill="#FC9C0C"/>
<path opacity="0.1" d="M138.256 141.029L123.853 140.964L123.841 143.607L138.244 143.672L138.256 141.029Z" fill="black"/>
<path d="M180.208 157.248C180.321 157.235 180.434 157.214 180.544 157.186C180.7 157.137 180.843 157.055 180.965 156.946C181.087 156.837 181.184 156.703 181.25 156.554C181.337 156.327 181.372 156.084 181.35 155.842C181.35 155.568 181.35 155.282 181.35 154.952C181.35 154.308 181.35 153.563 181.35 152.712V149.156C181.377 148.899 181.32 148.639 181.188 148.417C181.047 148.193 180.83 148.026 180.578 147.946C180.299 147.895 180.015 147.878 179.732 147.896H171.674L124.998 147.722C124.747 147.723 124.504 147.815 124.316 147.981C124.127 148.146 124.005 148.375 123.973 148.624C123.973 149.184 123.973 149.744 123.973 150.304C123.973 151.424 123.973 152.544 123.973 153.664C123.973 154.224 123.973 154.784 123.973 155.344C123.952 155.604 123.963 155.865 124.006 156.122C124.074 156.351 124.218 156.549 124.415 156.682C124.621 156.817 124.865 156.88 125.11 156.862H127.546L139.938 156.929L160.922 157.058L175.067 157.17L178.914 157.214H175.067H160.922L139.938 157.153L127.546 157.102H125.11C124.807 157.123 124.505 157.042 124.253 156.873C123.998 156.696 123.812 156.437 123.726 156.139C123.676 155.855 123.661 155.565 123.682 155.277C123.682 154.717 123.682 154.157 123.682 153.597C123.682 152.477 123.682 151.357 123.682 150.237C123.682 149.677 123.682 149.117 123.682 148.529C123.721 148.209 123.876 147.915 124.118 147.701C124.359 147.488 124.67 147.37 124.992 147.37L171.668 147.627L179.727 147.689C180.027 147.67 180.328 147.691 180.623 147.75C180.913 147.845 181.159 148.045 181.311 148.31C181.456 148.557 181.519 148.843 181.49 149.128C181.49 149.391 181.49 149.654 181.49 149.906C181.49 150.92 181.49 151.85 181.49 152.706C181.49 153.563 181.49 154.286 181.49 154.946C181.49 155.266 181.49 155.562 181.49 155.837C181.512 156.087 181.472 156.339 181.373 156.57C181.3 156.725 181.195 156.862 181.065 156.972C180.934 157.082 180.781 157.163 180.617 157.209C180.486 157.254 180.346 157.267 180.208 157.248Z" fill="#E0E0E0"/>
<path d="M154.166 126.088L127.823 125.968L127.812 128.438L154.154 128.557L154.166 126.088Z" fill="#FC9C0C"/>
<path opacity="0.2" d="M154.166 126.088L127.823 125.968L127.812 128.438L154.154 128.557L154.166 126.088Z" fill="white"/>
<path d="M130.205 152.678C130.189 152.904 130.107 153.119 129.969 153.298C129.831 153.477 129.644 153.612 129.43 153.685C129.216 153.758 128.986 153.768 128.767 153.711C128.549 153.655 128.351 153.536 128.2 153.368C128.048 153.201 127.949 152.992 127.915 152.769C127.88 152.546 127.912 152.317 128.007 152.112C128.101 151.907 128.254 151.734 128.445 151.615C128.637 151.495 128.86 151.435 129.085 151.441C129.397 151.458 129.69 151.598 129.9 151.83C130.109 152.061 130.219 152.366 130.205 152.678Z" fill="#FC9C0C"/>
<path d="M133.773 152.695C133.784 152.853 133.762 153.012 133.709 153.161C133.657 153.31 133.574 153.447 133.466 153.562C133.358 153.678 133.227 153.771 133.082 153.834C132.937 153.897 132.78 153.929 132.622 153.929C132.464 153.929 132.307 153.897 132.162 153.834C132.017 153.771 131.886 153.678 131.778 153.562C131.671 153.447 131.588 153.31 131.535 153.161C131.482 153.012 131.46 152.853 131.471 152.695C131.46 152.537 131.482 152.379 131.535 152.23C131.588 152.081 131.671 151.944 131.778 151.828C131.886 151.712 132.017 151.62 132.162 151.557C132.307 151.494 132.464 151.461 132.622 151.461C132.78 151.461 132.937 151.494 133.082 151.557C133.227 151.62 133.358 151.712 133.466 151.828C133.574 151.944 133.657 152.081 133.709 152.23C133.762 152.379 133.784 152.537 133.773 152.695Z" fill="#FC9C0C"/>
<path d="M137.346 152.712C137.329 152.937 137.247 153.153 137.109 153.332C136.971 153.511 136.784 153.645 136.57 153.719C136.357 153.792 136.126 153.801 135.907 153.745C135.689 153.689 135.491 153.569 135.34 153.402C135.188 153.234 135.089 153.026 135.055 152.803C135.021 152.58 135.053 152.351 135.147 152.146C135.241 151.941 135.394 151.768 135.586 151.648C135.777 151.529 136 151.469 136.226 151.475C136.537 151.493 136.829 151.633 137.038 151.865C137.248 152.096 137.358 152.4 137.346 152.712Z" fill="#FC9C0C"/>
<path d="M140.913 152.729C140.896 152.954 140.814 153.169 140.676 153.348C140.538 153.527 140.351 153.662 140.137 153.735C139.924 153.809 139.693 153.818 139.475 153.761C139.256 153.705 139.058 153.586 138.907 153.418C138.755 153.251 138.656 153.043 138.622 152.819C138.588 152.596 138.62 152.368 138.714 152.163C138.808 151.957 138.961 151.784 139.153 151.665C139.344 151.546 139.567 151.485 139.793 151.491C140.104 151.51 140.396 151.65 140.605 151.881C140.815 152.113 140.925 152.417 140.913 152.729Z" fill="#FC9C0C"/>
<path d="M144.48 152.74C144.465 152.966 144.383 153.182 144.246 153.361C144.109 153.541 143.922 153.676 143.708 153.751C143.495 153.825 143.264 153.835 143.045 153.779C142.826 153.723 142.628 153.604 142.476 153.437C142.323 153.27 142.224 153.062 142.189 152.838C142.155 152.615 142.186 152.386 142.281 152.18C142.375 151.975 142.527 151.802 142.719 151.682C142.911 151.562 143.134 151.502 143.36 151.508C143.671 151.527 143.961 151.666 144.171 151.896C144.38 152.126 144.491 152.429 144.48 152.74Z" fill="#FC9C0C"/>
<path d="M148.053 152.757C148.038 152.981 147.957 153.196 147.821 153.376C147.685 153.555 147.5 153.69 147.288 153.766C147.076 153.841 146.846 153.853 146.628 153.799C146.409 153.746 146.211 153.63 146.058 153.465C145.905 153.3 145.803 153.095 145.765 152.873C145.727 152.651 145.755 152.423 145.845 152.217C145.935 152.011 146.083 151.835 146.271 151.713C146.46 151.59 146.68 151.524 146.905 151.525C147.22 151.537 147.518 151.673 147.733 151.904C147.949 152.135 148.063 152.441 148.053 152.757Z" fill="#FC9C0C"/>
<path d="M151.62 152.773C151.631 152.931 151.61 153.09 151.557 153.239C151.504 153.388 151.421 153.525 151.313 153.641C151.205 153.756 151.074 153.849 150.929 153.912C150.784 153.975 150.628 154.007 150.469 154.007C150.311 154.007 150.154 153.975 150.009 153.912C149.864 153.849 149.734 153.756 149.626 153.641C149.518 153.525 149.435 153.388 149.382 153.239C149.329 153.09 149.307 152.931 149.318 152.773C149.307 152.616 149.329 152.457 149.382 152.308C149.435 152.159 149.518 152.022 149.626 151.906C149.734 151.791 149.864 151.698 150.009 151.635C150.154 151.572 150.311 151.54 150.469 151.54C150.628 151.54 150.784 151.572 150.929 151.635C151.074 151.698 151.205 151.791 151.313 151.906C151.421 152.022 151.504 152.159 151.557 152.308C151.61 152.457 151.631 152.616 151.62 152.773Z" fill="#FC9C0C"/>
<path d="M155.187 152.79C155.172 153.015 155.091 153.23 154.955 153.409C154.819 153.588 154.634 153.724 154.422 153.799C154.21 153.874 153.981 153.886 153.762 153.833C153.544 153.779 153.346 153.663 153.192 153.498C153.039 153.334 152.937 153.128 152.899 152.906C152.861 152.685 152.889 152.457 152.979 152.25C153.069 152.044 153.217 151.869 153.406 151.746C153.594 151.623 153.814 151.558 154.039 151.558C154.355 151.57 154.652 151.706 154.868 151.937C155.083 152.168 155.198 152.475 155.187 152.79Z" fill="#FC9C0C"/>
<path d="M158.754 152.807C158.739 153.033 158.658 153.249 158.52 153.429C158.383 153.608 158.196 153.744 157.983 153.818C157.769 153.892 157.538 153.902 157.319 153.847C157.1 153.791 156.902 153.672 156.75 153.505C156.598 153.337 156.498 153.129 156.464 152.905C156.429 152.682 156.461 152.453 156.555 152.248C156.649 152.042 156.802 151.869 156.994 151.749C157.186 151.63 157.408 151.569 157.634 151.575C157.945 151.594 158.236 151.733 158.445 151.964C158.654 152.194 158.765 152.497 158.754 152.807Z" fill="#FC9C0C"/>
<g opacity="0.2">
<path d="M130.205 152.678C130.189 152.904 130.107 153.119 129.969 153.298C129.831 153.477 129.644 153.612 129.43 153.685C129.216 153.758 128.986 153.768 128.767 153.711C128.549 153.655 128.351 153.536 128.2 153.368C128.048 153.201 127.949 152.992 127.915 152.769C127.88 152.546 127.912 152.317 128.007 152.112C128.101 151.907 128.254 151.734 128.445 151.615C128.637 151.495 128.86 151.435 129.085 151.441C129.397 151.458 129.69 151.598 129.9 151.83C130.109 152.061 130.219 152.366 130.205 152.678Z" fill="white"/>
<path d="M133.773 152.695C133.784 152.853 133.762 153.011 133.709 153.161C133.656 153.31 133.573 153.447 133.465 153.562C133.358 153.678 133.227 153.77 133.082 153.833C132.937 153.896 132.78 153.929 132.622 153.929C132.464 153.929 132.307 153.896 132.162 153.833C132.017 153.77 131.886 153.678 131.778 153.562C131.67 153.447 131.587 153.31 131.534 153.161C131.482 153.011 131.46 152.853 131.471 152.695C131.46 152.537 131.482 152.379 131.534 152.23C131.587 152.08 131.67 151.944 131.778 151.828C131.886 151.712 132.017 151.62 132.162 151.557C132.307 151.494 132.464 151.461 132.622 151.461C132.78 151.461 132.937 151.494 133.082 151.557C133.227 151.62 133.358 151.712 133.465 151.828C133.573 151.944 133.656 152.08 133.709 152.23C133.762 152.379 133.784 152.537 133.773 152.695Z" fill="white"/>
<path d="M137.345 152.712C137.329 152.937 137.247 153.153 137.109 153.332C136.971 153.511 136.784 153.645 136.57 153.719C136.356 153.792 136.126 153.801 135.907 153.745C135.688 153.689 135.491 153.569 135.34 153.402C135.188 153.234 135.089 153.026 135.055 152.803C135.02 152.58 135.052 152.351 135.147 152.146C135.241 151.941 135.394 151.768 135.585 151.648C135.777 151.529 136 151.469 136.225 151.475C136.537 151.493 136.829 151.633 137.038 151.865C137.247 152.096 137.358 152.4 137.345 152.712Z" fill="white"/>
<path d="M140.913 152.729C140.896 152.954 140.814 153.169 140.676 153.348C140.538 153.527 140.351 153.662 140.137 153.735C139.924 153.809 139.693 153.818 139.475 153.761C139.256 153.705 139.058 153.586 138.907 153.418C138.755 153.251 138.656 153.043 138.622 152.819C138.588 152.596 138.62 152.368 138.714 152.163C138.808 151.957 138.961 151.784 139.153 151.665C139.344 151.546 139.567 151.485 139.793 151.491C140.104 151.51 140.396 151.65 140.605 151.881C140.815 152.113 140.925 152.417 140.913 152.729Z" fill="white"/>
<path d="M144.48 152.74C144.464 152.966 144.383 153.182 144.246 153.361C144.108 153.541 143.921 153.676 143.708 153.751C143.494 153.825 143.264 153.835 143.044 153.779C142.825 153.723 142.627 153.604 142.475 153.437C142.323 153.27 142.224 153.062 142.189 152.838C142.154 152.615 142.186 152.386 142.28 152.18C142.374 151.975 142.527 151.802 142.719 151.682C142.911 151.562 143.134 151.502 143.36 151.508C143.67 151.527 143.961 151.666 144.17 151.896C144.38 152.126 144.491 152.429 144.48 152.74Z" fill="white"/>
<path d="M148.053 152.757C148.037 152.981 147.957 153.196 147.821 153.376C147.685 153.555 147.499 153.69 147.288 153.766C147.076 153.841 146.846 153.853 146.628 153.799C146.409 153.746 146.211 153.63 146.058 153.465C145.904 153.3 145.802 153.095 145.765 152.873C145.727 152.651 145.754 152.423 145.844 152.217C145.934 152.011 146.083 151.835 146.271 151.713C146.459 151.59 146.68 151.524 146.905 151.525C147.22 151.537 147.518 151.673 147.733 151.904C147.948 152.135 148.063 152.441 148.053 152.757Z" fill="white"/>
<path d="M151.62 152.774C151.631 152.932 151.609 153.09 151.556 153.239C151.504 153.388 151.421 153.525 151.313 153.641C151.205 153.757 151.074 153.849 150.929 153.912C150.784 153.975 150.627 154.008 150.469 154.008C150.311 154.008 150.154 153.975 150.009 153.912C149.864 153.849 149.733 153.757 149.625 153.641C149.517 153.525 149.434 153.388 149.382 153.239C149.329 153.09 149.307 152.932 149.318 152.774C149.307 152.616 149.329 152.457 149.382 152.308C149.434 152.159 149.517 152.022 149.625 151.907C149.733 151.791 149.864 151.699 150.009 151.635C150.154 151.572 150.311 151.54 150.469 151.54C150.627 151.54 150.784 151.572 150.929 151.635C151.074 151.699 151.205 151.791 151.313 151.907C151.421 152.022 151.504 152.159 151.556 152.308C151.609 152.457 151.631 152.616 151.62 152.774Z" fill="white"/>
<path d="M155.187 152.79C155.172 153.015 155.091 153.23 154.955 153.409C154.819 153.588 154.634 153.724 154.422 153.799C154.21 153.874 153.981 153.886 153.762 153.833C153.544 153.779 153.346 153.663 153.192 153.498C153.039 153.334 152.937 153.128 152.899 152.906C152.861 152.685 152.889 152.457 152.979 152.25C153.069 152.044 153.217 151.869 153.406 151.746C153.594 151.623 153.814 151.558 154.039 151.558C154.355 151.57 154.652 151.706 154.868 151.937C155.083 152.168 155.198 152.475 155.187 152.79Z" fill="white"/>
<path d="M158.754 152.807C158.739 153.033 158.657 153.249 158.52 153.428C158.383 153.608 158.196 153.744 157.982 153.818C157.769 153.892 157.538 153.902 157.319 153.846C157.1 153.791 156.902 153.672 156.75 153.504C156.598 153.337 156.498 153.129 156.463 152.905C156.429 152.682 156.46 152.453 156.555 152.248C156.649 152.042 156.801 151.869 156.993 151.749C157.185 151.63 157.408 151.569 157.634 151.575C157.945 151.594 158.236 151.733 158.445 151.963C158.654 152.194 158.765 152.496 158.754 152.807Z" fill="white"/>
</g>
<path d="M153.687 71.9657C154.076 71.7943 154.406 71.5124 154.636 71.155C154.866 70.7975 154.985 70.3803 154.98 69.9553C154.995 69.679 154.953 69.4026 154.857 69.143C154.761 68.8834 154.614 68.6461 154.423 68.4454C154.233 68.2447 154.003 68.0848 153.749 67.9756C153.495 67.8664 153.221 67.8101 152.945 67.8101C152.668 67.8101 152.394 67.8664 152.14 67.9756C151.886 68.0848 151.656 68.2447 151.466 68.4454C151.275 68.6461 151.128 68.8834 151.032 69.143C150.936 69.4026 150.894 69.679 150.909 69.9553C150.9 70.3846 151.019 70.8067 151.25 71.1685C151.482 71.5303 151.815 71.8155 152.208 71.9881C149.072 72.4585 149.212 75.8633 149.212 75.8633L156.627 75.8969C156.627 75.8969 156.8 72.4305 153.687 71.9657Z" fill="#FC9C0C"/>
<path opacity="0.1" d="M153.687 71.9657C154.076 71.7943 154.406 71.5124 154.636 71.155C154.866 70.7975 154.985 70.3803 154.98 69.9553C154.995 69.679 154.953 69.4026 154.857 69.143C154.761 68.8834 154.614 68.6461 154.423 68.4454C154.233 68.2447 154.003 68.0848 153.749 67.9756C153.495 67.8664 153.221 67.8101 152.945 67.8101C152.668 67.8101 152.394 67.8664 152.14 67.9756C151.886 68.0848 151.656 68.2447 151.466 68.4454C151.275 68.6461 151.128 68.8834 151.032 69.143C150.936 69.4026 150.894 69.679 150.909 69.9553C150.9 70.3846 151.019 70.8067 151.25 71.1685C151.482 71.5303 151.815 71.8155 152.208 71.9881C149.072 72.4585 149.212 75.8633 149.212 75.8633L156.627 75.8969C156.627 75.8969 156.8 72.4305 153.687 71.9657Z" fill="black"/>
<path d="M165.734 78.0928L139.308 77.9729L139.294 81.1313L165.72 81.2512L165.734 78.0928Z" fill="#FC9C0C"/>
<path opacity="0.2" d="M165.734 78.0928L139.308 77.9729L139.294 81.1313L165.72 81.2512L165.734 78.0928Z" fill="white"/>
<path d="M90.615 119.735H53.865C50.9655 119.735 48.615 122.085 48.615 124.985V161.735C48.615 164.634 50.9655 166.985 53.865 166.985H90.615C93.5145 166.985 95.865 164.634 95.865 161.735V124.985C95.865 122.085 93.5145 119.735 90.615 119.735Z" fill="#1A1A1A" fill-opacity="0.16"/>
<path d="M53.865 174.86H43.365C42.6688 174.86 42.0011 174.583 41.5088 174.091C41.0166 173.599 40.74 172.931 40.74 172.235V161.735C40.74 161.039 40.4634 160.371 39.9711 159.879C39.4789 159.386 38.8112 159.11 38.115 159.11C37.4188 159.11 36.7511 159.386 36.2588 159.879C35.7666 160.371 35.49 161.039 35.49 161.735V172.235C35.49 174.324 36.3197 176.327 37.7965 177.803C39.2734 179.28 41.2764 180.11 43.365 180.11H53.865C54.5612 180.11 55.2289 179.833 55.7212 179.341C56.2134 178.849 56.49 178.181 56.49 177.485C56.49 176.789 56.2134 176.121 55.7212 175.629C55.2289 175.136 54.5612 174.86 53.865 174.86ZM106.365 159.11C105.669 159.11 105.001 159.386 104.509 159.879C104.017 160.371 103.74 161.039 103.74 161.735V172.235C103.74 172.931 103.463 173.599 102.971 174.091C102.479 174.583 101.811 174.86 101.115 174.86H90.615C89.9188 174.86 89.2512 175.136 88.7589 175.629C88.2666 176.121 87.99 176.789 87.99 177.485C87.99 178.181 88.2666 178.849 88.7589 179.341C89.2512 179.833 89.9188 180.11 90.615 180.11H101.115C103.204 180.11 105.207 179.28 106.684 177.803C108.16 176.327 108.99 174.324 108.99 172.235V161.735C108.99 161.039 108.713 160.371 108.221 159.879C107.729 159.386 107.061 159.11 106.365 159.11ZM38.115 127.61C38.8112 127.61 39.4789 127.333 39.9711 126.841C40.4634 126.349 40.74 125.681 40.74 124.985V114.485C40.74 113.789 41.0166 113.121 41.5088 112.629C42.0011 112.136 42.6688 111.86 43.365 111.86H53.865C54.5612 111.86 55.2289 111.583 55.7212 111.091C56.2134 110.599 56.49 109.931 56.49 109.235C56.49 108.539 56.2134 107.871 55.7212 107.379C55.2289 106.886 54.5612 106.61 53.865 106.61H43.365C41.2764 106.61 39.2734 107.44 37.7965 108.916C36.3197 110.393 35.49 112.396 35.49 114.485V124.985C35.49 125.681 35.7666 126.349 36.2588 126.841C36.7511 127.333 37.4188 127.61 38.115 127.61ZM101.115 106.61H90.615C89.9188 106.61 89.2512 106.886 88.7589 107.379C88.2666 107.871 87.99 108.539 87.99 109.235C87.99 109.931 88.2666 110.599 88.7589 111.091C89.2512 111.583 89.9188 111.86 90.615 111.86H101.115C101.811 111.86 102.479 112.136 102.971 112.629C103.463 113.121 103.74 113.789 103.74 114.485V124.985C103.74 125.681 104.017 126.349 104.509 126.841C105.001 127.333 105.669 127.61 106.365 127.61C107.061 127.61 107.729 127.333 108.221 126.841C108.713 126.349 108.99 125.681 108.99 124.985V114.485C108.99 112.396 108.16 110.393 106.684 108.916C105.207 107.44 103.204 106.61 101.115 106.61Z" fill="black"/>
<path d="M59.115 151.235H51.24C49.8476 151.235 48.5122 151.788 47.5277 152.773C46.5431 153.757 45.99 155.092 45.99 156.485V164.36C45.99 165.752 46.5431 167.088 47.5277 168.072C48.5122 169.057 49.8476 169.61 51.24 169.61H59.115C60.5074 169.61 61.8427 169.057 62.8273 168.072C63.8119 167.088 64.365 165.752 64.365 164.36V156.485C64.365 155.092 63.8119 153.757 62.8273 152.773C61.8427 151.788 60.5074 151.235 59.115 151.235ZM51.24 164.36V156.485H59.115V164.36H51.24ZM98.49 164.36V156.485C98.49 155.092 97.9369 153.757 96.9523 152.773C95.9677 151.788 94.6324 151.235 93.24 151.235H85.365C83.9726 151.235 82.6372 151.788 81.6527 152.773C80.6681 153.757 80.115 155.092 80.115 156.485V164.36C80.115 165.752 80.6681 167.088 81.6527 168.072C82.6372 169.057 83.9726 169.61 85.365 169.61H93.24C94.6324 169.61 95.9677 169.057 96.9523 168.072C97.9369 167.088 98.49 165.752 98.49 164.36ZM85.365 156.485H93.24V164.36H85.365V156.485Z" fill="black"/>
<path d="M69.615 140.735H48.615C47.9188 140.735 47.2511 141.011 46.7588 141.504C46.2666 141.996 45.99 142.664 45.99 143.36C45.99 144.056 46.2666 144.724 46.7588 145.216C47.2511 145.708 47.9188 145.985 48.615 145.985H69.615V166.985C69.615 167.681 69.8916 168.349 70.3838 168.841C70.8761 169.333 71.5438 169.61 72.24 169.61C72.9362 169.61 73.6039 169.333 74.0961 168.841C74.5884 168.349 74.865 167.681 74.865 166.985V145.985C74.865 144.592 74.3119 143.257 73.3273 142.273C72.3427 141.288 71.0074 140.735 69.615 140.735ZM45.99 122.36V132.86C45.99 133.556 46.2666 134.224 46.7588 134.716C47.2511 135.208 47.9188 135.485 48.615 135.485C49.3112 135.485 49.9789 135.208 50.4711 134.716C50.9634 134.224 51.24 133.556 51.24 132.86V122.36H61.74C62.4362 122.36 63.1039 122.083 63.5961 121.591C64.0884 121.099 64.365 120.431 64.365 119.735C64.365 119.039 64.0884 118.371 63.5961 117.879C63.1039 117.386 62.4362 117.11 61.74 117.11H51.24C49.8476 117.11 48.5122 117.663 47.5277 118.648C46.5431 119.632 45.99 120.967 45.99 122.36ZM85.365 135.485H93.24C94.6324 135.485 95.9677 134.932 96.9523 133.947C97.9369 132.963 98.49 131.627 98.49 130.235V122.36C98.49 120.967 97.9369 119.632 96.9523 118.648C95.9677 117.663 94.6324 117.11 93.24 117.11H85.365C83.9726 117.11 82.6372 117.663 81.6527 118.648C80.6681 119.632 80.115 120.967 80.115 122.36V130.235C80.115 131.627 80.6681 132.963 81.6527 133.947C82.6372 134.932 83.9726 135.485 85.365 135.485ZM85.365 122.36H93.24V130.235H85.365V122.36ZM82.74 145.985H85.365C86.0612 145.985 86.7289 145.708 87.2211 145.216C87.7134 144.724 87.99 144.056 87.99 143.36C87.99 142.664 87.7134 141.996 87.2211 141.504C86.7289 141.011 86.0612 140.735 85.365 140.735H82.74C82.0438 140.735 81.3761 141.011 80.8838 141.504C80.3915 141.996 80.115 142.664 80.115 143.36C80.115 144.056 80.3915 144.724 80.8838 145.216C81.3761 145.708 82.0438 145.985 82.74 145.985ZM93.24 140.735C92.5438 140.735 91.8761 141.011 91.3838 141.504C90.8915 141.996 90.615 142.664 90.615 143.36C90.615 144.056 90.8915 144.724 91.3838 145.216C91.8761 145.708 92.5438 145.985 93.24 145.985H95.865C96.5612 145.985 97.2289 145.708 97.7211 145.216C98.2134 144.724 98.49 144.056 98.49 143.36C98.49 142.664 98.2134 141.996 97.7211 141.504C97.2289 141.011 96.5612 140.735 95.865 140.735H93.24ZM72.24 130.235H59.115C58.4188 130.235 57.7511 130.511 57.2588 131.004C56.7666 131.496 56.49 132.164 56.49 132.86C56.49 133.556 56.7666 134.224 57.2588 134.716C57.7511 135.208 58.4188 135.485 59.115 135.485H72.24C72.9362 135.485 73.6039 135.208 74.0961 134.716C74.5884 134.224 74.865 133.556 74.865 132.86C74.865 132.164 74.5884 131.496 74.0961 131.004C73.6039 130.511 72.9362 130.235 72.24 130.235ZM72.24 117.11C71.5438 117.11 70.8761 117.386 70.3838 117.879C69.8916 118.371 69.615 119.039 69.615 119.735V122.36C69.615 123.056 69.8916 123.724 70.3838 124.216C70.8761 124.708 71.5438 124.985 72.24 124.985C72.9362 124.985 73.6039 124.708 74.0961 124.216C74.5884 123.724 74.865 123.056 74.865 122.36V119.735C74.865 119.039 74.5884 118.371 74.0961 117.879C73.6039 117.386 72.9362 117.11 72.24 117.11Z" fill="black"/>
<path d="M69.846 75.5999H69.5828L68.8212 75.6559C68.4091 75.6807 67.9992 75.7349 67.5948 75.8183C67.3329 75.8551 67.0731 75.9055 66.8164 75.9695L65.9484 76.2103C64.471 76.6636 63.0771 77.3539 61.8212 78.2543C60.1619 79.4587 58.7763 81.0008 57.7556 82.7791C57.1557 83.8042 56.6783 84.8962 56.3332 86.0327C55.9706 87.2679 55.7618 88.5431 55.7116 89.8295C55.6782 90.5052 55.6895 91.1824 55.7452 91.8567C55.7452 92.1983 55.8404 92.5399 55.8852 92.8871C55.9229 93.2371 55.9884 93.5835 56.0812 93.9231C56.5848 96.1702 57.6065 98.2686 59.0649 100.051C60.5234 101.833 62.3781 103.25 64.4812 104.188C66.0033 104.845 67.6348 105.211 69.2916 105.269C71.0028 105.363 72.7157 105.117 74.3316 104.546L74.8244 104.361H74.8916L74.9476 104.395L82.0092 107.979L81.802 108.158C81.046 105.817 80.318 103.549 79.6124 101.371V101.287L79.674 101.225C81.3871 99.5001 82.6587 97.387 83.3812 95.0655C84.0356 92.9431 84.2266 90.7049 83.9412 88.5023C83.6874 86.5448 83.058 84.6548 82.0876 82.9359C81.2511 81.4594 80.1721 80.1342 78.8956 79.0159C77.8425 78.1308 76.6769 77.3889 75.4292 76.8095C74.4851 76.4023 73.5019 76.0927 72.4948 75.8855L71.3748 75.7007L70.5628 75.6391L70.07 75.6055H69.902C69.9578 75.5993 70.0142 75.5993 70.07 75.6055H70.5684L71.3804 75.6391L72.5004 75.8015C73.52 75.9935 74.5167 76.292 75.474 76.6919C76.7432 77.2644 77.9298 78.0046 79.002 78.8927C80.3019 80.006 81.4039 81.3314 82.2612 82.8127C83.2592 84.55 83.9079 86.4657 84.1708 88.4519C84.4798 90.6885 84.3022 92.9655 83.65 95.1271C82.9228 97.4969 81.6315 99.6549 79.8868 101.416L79.9204 101.27C80.626 103.449 81.3596 105.717 82.1212 108.052L82.2276 108.393L81.9084 108.231L74.8468 104.653H74.97L74.466 104.837C72.819 105.417 71.0744 105.668 69.3308 105.577C67.6383 105.512 65.9727 105.132 64.4196 104.457C61.457 103.188 58.9922 100.983 57.4028 98.1791C56.6714 96.8843 56.1372 95.4876 55.818 94.0351C55.7306 93.6867 55.6651 93.3333 55.622 92.9767C55.5772 92.6239 55.5044 92.2767 55.4876 91.9295C55.336 89.9369 55.5466 87.9334 56.1092 86.0159C56.4629 84.8638 56.9536 83.7582 57.5708 82.7231C58.6158 80.9286 60.0303 79.3768 61.7204 78.1703C62.997 77.2676 64.4143 76.5826 65.9148 76.1431L66.794 75.9191C67.0528 75.8591 67.3145 75.8123 67.578 75.7791C67.9866 75.7034 68.4003 75.6585 68.8156 75.6447L69.5828 75.6167C69.67 75.605 69.758 75.5993 69.846 75.5999Z" fill="#FC9C0C"/>
<path d="M85.5065 251.841V247.053L76.9217 246.991L76.8489 254.232L77.3809 254.271C79.7497 254.422 89.4321 254.646 91.0225 254.154C92.7921 253.605 85.5065 251.841 85.5065 251.841Z" fill="#FC9C0C"/>
<path d="M91.2239 253.705C91.2239 253.784 88.0095 253.851 84.0503 253.851C80.0911 253.851 76.8767 253.784 76.8767 253.705C76.8767 253.627 80.0911 253.56 84.0503 253.56C88.0095 253.56 91.2239 253.627 91.2239 253.705Z" fill="#1A1A1A"/>
<path d="M85.6577 252.821C85.5849 252.782 85.6577 252.53 85.8313 252.261C86.0049 251.992 86.2401 251.88 86.2961 251.936C86.3521 251.992 86.2345 252.205 86.0665 252.434C85.8985 252.664 85.7305 252.86 85.6577 252.821Z" fill="#1A1A1A"/>
<path d="M86.2063 253.134C86.1279 253.134 86.1671 252.821 86.3351 252.524C86.5031 252.227 86.7271 252.048 86.7887 252.093C86.8503 252.138 86.7495 252.39 86.5927 252.653C86.4359 252.916 86.2791 253.162 86.2063 253.134Z" fill="#1A1A1A"/>
<path d="M79.4639 253.683C79.4303 253.683 79.3015 253.582 79.1167 253.369C78.8911 253.096 78.6399 252.844 78.3663 252.619C78.0973 252.404 77.7769 252.263 77.4367 252.21C77.1735 252.176 77.0055 252.21 76.9887 252.176C76.9719 252.143 77.1343 252.025 77.4423 252.003C77.8488 251.994 78.2453 252.129 78.5623 252.384C78.8593 252.626 79.1098 252.92 79.3015 253.252C79.4303 253.498 79.4975 253.66 79.4639 253.683Z" fill="#1A1A1A"/>
<path d="M85.6855 251.919C85.7247 251.986 85.5791 252.154 85.3327 252.244C85.0863 252.334 84.8679 252.3 84.8567 252.244C84.8455 252.188 85.0191 252.07 85.2319 251.992C85.4447 251.913 85.6407 251.852 85.6855 251.919Z" fill="#1A1A1A"/>
<path d="M85.5513 251.454C85.5513 251.538 85.3273 251.605 85.0361 251.611C84.7449 251.617 84.5153 251.549 84.5209 251.471C84.5265 251.393 84.7561 251.32 85.0361 251.314C85.3161 251.309 85.5401 251.376 85.5513 251.454Z" fill="#1A1A1A"/>
<path d="M106.646 251.841V247.053L98.0616 246.991L97.9888 254.159L98.5208 254.198C100.89 254.35 110.578 254.646 112.162 254.154C113.932 253.605 106.646 251.841 106.646 251.841Z" fill="#FC9C0C"/>
<path d="M112.364 253.717C112.364 253.795 109.155 253.863 105.19 253.863C101.226 253.863 98.0225 253.795 98.0225 253.717C98.0225 253.638 101.231 253.571 105.19 253.571C109.15 253.571 112.364 253.638 112.364 253.717Z" fill="#1A1A1A"/>
<path d="M106.798 252.821C106.73 252.782 106.798 252.53 106.971 252.261C107.145 251.992 107.38 251.88 107.436 251.936C107.492 251.992 107.374 252.205 107.206 252.434C107.038 252.664 106.87 252.86 106.798 252.821Z" fill="#1A1A1A"/>
<path d="M107.346 253.134C107.274 253.134 107.307 252.821 107.481 252.524C107.654 252.227 107.873 252.048 107.934 252.093C107.996 252.138 107.89 252.39 107.733 252.653C107.576 252.916 107.425 253.162 107.346 253.134Z" fill="#1A1A1A"/>
<path d="M100.604 253.683C100.57 253.683 100.447 253.582 100.257 253.369C100.031 253.096 99.78 252.844 99.5065 252.619C99.2375 252.404 98.9171 252.263 98.5769 252.21C98.3193 252.176 98.1457 252.21 98.1289 252.176C98.1121 252.143 98.2745 252.025 98.5825 252.003C98.9889 251.994 99.3855 252.129 99.7025 252.384C100.001 252.624 100.252 252.919 100.442 253.252C100.57 253.498 100.638 253.66 100.604 253.683Z" fill="#1A1A1A"/>
<path d="M106.826 251.919C106.865 251.986 106.719 252.154 106.473 252.244C106.226 252.334 106.008 252.3 105.997 252.244C105.986 252.188 106.159 252.07 106.372 251.992C106.585 251.913 106.781 251.852 106.826 251.919Z" fill="#1A1A1A"/>
<path d="M106.702 251.454C106.702 251.538 106.478 251.605 106.187 251.611C105.896 251.617 105.672 251.549 105.678 251.471C105.683 251.393 105.907 251.32 106.187 251.314C106.467 251.309 106.702 251.376 106.702 251.454Z" fill="#1A1A1A"/>
<path d="M138.275 109.657C138.051 109.427 137.497 109.539 137.497 109.539C137.552 109.217 137.552 108.887 137.497 108.565C137.396 108.251 136.69 108.313 136.69 108.313C136.658 108.049 136.658 107.782 136.69 107.518C136.696 107.459 136.683 107.4 136.654 107.349C136.625 107.298 136.581 107.257 136.528 107.232C136.194 107.096 135.836 107.031 135.475 107.042C135.044 106.734 136.791 104.286 137.441 103.502C138.09 102.718 137.973 102.108 137.396 102.108C136.998 102.108 134.96 104.46 134.333 105.25C133.706 106.039 132.042 108.234 131.986 106.482C131.93 104.729 131.225 103.407 130.782 103.183C130.34 102.959 129.87 103.486 130.11 103.973C130.322 104.526 130.454 105.107 130.502 105.698C130.563 106.168 130.542 106.645 130.441 107.109C130.255 107.971 130.002 108.817 129.685 109.64H129.64C129.64 109.64 117.421 121.361 116.536 122.195C115.746 122.945 99.8648 121.305 96.6784 120.969C95.5956 120.81 94.5023 120.735 93.408 120.745C92.0248 120.806 91.7784 121.002 90.4008 121.019C86.9218 121.058 83.4508 121.363 80.0184 121.932C78.4642 122.196 77.0124 122.882 75.8215 123.915C74.6305 124.948 73.7461 126.288 73.2648 127.789C70.056 137.813 62.7872 161.541 61.5048 174.869C60.5357 176.626 59.6609 178.434 58.884 180.284C57.9824 182.737 58.2008 182.821 58.5032 182.877C59.3208 183.028 60.2504 178.626 60.5976 179.69C60.9448 180.754 58.8336 184.937 59.6904 185.061C60.8104 185.217 61.7008 180.581 61.8072 180.211C61.9136 179.841 62.468 179.959 62.3672 180.306C62.2048 180.799 60.6312 186.024 61.7288 186.192C62.3336 186.281 62.4008 185.178 62.4008 185.178C62.4008 185.178 63.5208 180.177 64.0304 180.278C64.54 180.379 63.9968 183.33 63.7392 184.316C63.4816 185.301 63.84 185.8 64.3664 185.559C64.7248 185.391 65.5816 182.395 65.8168 181.421C66.052 180.446 66.64 177.747 67.4296 179.309C68.2192 180.872 69.4176 181.779 69.9104 181.801C70.0214 181.789 70.1261 181.743 70.2109 181.67C70.2958 181.597 70.3569 181.501 70.3864 181.393C70.4159 181.285 70.4125 181.171 70.3765 181.065C70.3406 180.959 70.2738 180.867 70.1848 180.799C69.7609 180.385 69.3971 179.914 69.104 179.399C68.8428 178.998 68.6533 178.555 68.544 178.089C68.3183 177.16 68.187 176.21 68.152 175.255L68.0624 174.695C69.3168 168.485 72.9288 150.257 78.1424 138.614L80.2816 143.016L81.2112 146.275L75.5104 160.348L99.8256 160.029L96.1968 146.062L100.604 131.502C105.37 131.609 117.606 131.788 119.644 130.864C122.209 129.744 135.475 112.989 135.475 112.989C136.34 112.317 137.168 111.599 137.956 110.838C137.956 110.838 138.762 110.161 138.275 109.657Z" fill="#FFBE9D"/>
<path d="M74.4408 149.949C75.1464 147.541 78.7696 135.635 78.7696 135.635C78.7696 135.635 80.5504 145.34 80.08 146.51C79.6473 147.512 79.1361 148.478 78.5512 149.4C74.4408 155.655 74.9784 158.785 74.9784 158.785L99.8144 158.029C99.8704 154.557 97.8152 146.482 97.3896 145.194C96.964 143.906 98.3808 139.689 98.3808 139.689C98.3808 139.689 101.181 136.839 101.08 135.372C101.027 134.054 100.864 132.743 100.593 131.452L115.713 132.012L115.237 121.764L93.52 119.591C92.764 121.725 85.9264 120.677 85.9264 120.677C78.5456 120.924 78.0864 122.279 75.0176 124.665C71.9488 127.05 66.8696 147.524 66.8696 147.524L74.4408 149.949Z" fill="#FC9C0C"/>
<path d="M89.1241 147.524C88.6937 147.601 88.2553 147.623 87.8193 147.591C87.0073 147.591 85.8929 147.535 84.6665 147.412C83.4401 147.289 82.3313 147.115 81.5417 146.958C81.1063 146.902 80.6794 146.793 80.2705 146.634C80.7083 146.634 81.1452 146.675 81.5753 146.757C82.3705 146.858 83.4737 146.998 84.6945 147.121C85.9153 147.244 87.0241 147.328 87.8249 147.384C88.2614 147.389 88.6964 147.436 89.1241 147.524Z" fill="#1A1A1A"/>
<path d="M90.8263 145.413C90.3958 145.624 89.9405 145.78 89.4711 145.877C87.2369 146.464 84.9319 146.738 82.6223 146.689C82.1444 146.705 81.6665 146.66 81.2 146.555C81.6716 146.495 82.1471 146.471 82.6223 146.482C83.5015 146.454 84.7111 146.393 86.0439 146.236C87.3767 146.079 88.5639 145.855 89.4039 145.676C89.8705 145.551 90.3461 145.463 90.8263 145.413Z" fill="#1A1A1A"/>
<path d="M99.1816 135.993C99.1703 136.42 99.1121 136.845 99.008 137.259C98.8624 138.037 98.6384 139.101 98.3528 140.266C98.0672 141.431 97.7928 142.506 97.5464 143.234C97.4473 143.651 97.3008 144.055 97.1096 144.438C97.1408 144.013 97.2197 143.592 97.3448 143.184C97.5576 142.31 97.7984 141.302 98.0672 140.199C98.336 139.096 98.5936 138.088 98.8064 137.214C98.8822 136.794 99.0082 136.384 99.1816 135.993Z" fill="#1A1A1A"/>
<path d="M74.704 148.521C73.4085 148.321 72.1299 148.023 70.8792 147.63C69.6012 147.332 68.3471 146.938 67.1272 146.454C68.4221 146.658 69.7004 146.955 70.952 147.345C72.2303 147.643 73.4845 148.036 74.704 148.521Z" fill="#1A1A1A"/>
<path d="M100.862 131.329C100.65 131.365 100.434 131.365 100.223 131.329C99.6382 131.269 99.0639 131.131 98.5152 130.92C97.5991 130.576 96.7651 130.044 96.0669 129.358C95.3686 128.672 94.8215 127.848 94.4608 126.938C94.062 125.938 93.8917 124.86 93.9624 123.785C93.9873 122.899 94.2525 122.036 94.7296 121.288C95.0651 120.784 95.5663 120.414 96.1464 120.241C96.3013 120.198 96.4616 120.177 96.6224 120.179C96.7344 120.179 96.7904 120.179 96.7904 120.179C96.7904 120.179 96.5552 120.179 96.18 120.33C95.6478 120.527 95.1965 120.895 94.8976 121.377C94.136 122.576 93.9232 124.765 94.7352 126.809C95.1131 127.773 95.7047 128.639 96.4656 129.341C97.089 129.915 97.807 130.377 98.588 130.707C99.3208 130.997 100.083 131.205 100.862 131.329Z" fill="#1A1A1A"/>
<path d="M113.915 131.81C113.775 130.093 113.73 128.369 113.781 126.647C113.737 124.926 113.789 123.204 113.938 121.49C114.078 123.205 114.123 124.927 114.072 126.647C114.119 128.37 114.067 130.094 113.915 131.81Z" fill="#1A1A1A"/>
<path d="M93.3743 120.218C93.4359 118.97 93.5647 117.558 93.5647 117.558C93.5647 117.558 96.6559 117.217 96.8407 114.025C97.0255 110.833 96.8407 103.469 96.8407 103.469L91.2407 100.602L85.0247 105.49L85.9823 121.45L91.6831 121.814C92.1188 121.826 92.5416 121.665 92.8586 121.366C93.1757 121.067 93.3611 120.654 93.3743 120.218Z" fill="#FFBE9D"/>
<path d="M93.9287 111.499C93.9287 111.499 93.9288 111.561 93.8784 111.634C93.8367 111.686 93.7828 111.728 93.7213 111.756C93.6599 111.783 93.5927 111.795 93.5255 111.79C93.1671 111.79 92.8199 111.376 92.6967 110.894C92.6382 110.661 92.6382 110.417 92.6967 110.183C92.7082 110.081 92.745 109.984 92.8037 109.9C92.8623 109.816 92.9411 109.748 93.0327 109.702C93.1081 109.67 93.1926 109.67 93.2679 109.702C93.3238 109.729 93.369 109.775 93.3968 109.83C93.436 109.926 93.3968 109.987 93.3968 109.982C93.3968 109.976 93.3967 109.926 93.3407 109.87C93.3115 109.829 93.2684 109.802 93.2199 109.791C93.1713 109.781 93.1206 109.789 93.0775 109.814C93.0089 109.855 92.9518 109.913 92.9116 109.983C92.8715 110.052 92.8496 110.131 92.8479 110.211C92.8008 110.419 92.8008 110.636 92.8479 110.844C92.9599 111.281 93.2623 111.634 93.5311 111.667C93.5837 111.674 93.6372 111.671 93.6883 111.656C93.7394 111.642 93.7869 111.617 93.8279 111.583C93.8951 111.538 93.9175 111.494 93.9287 111.499Z" fill="#EB996E"/>
<path d="M98.7615 101.744C98.3303 100.277 96.7679 99.5486 95.3455 99.1454C93.1783 98.5294 90.8375 98.2606 88.7207 99.039C86.6039 99.8174 84.0615 101.184 84.0615 103.519C82.8127 103.418 82.0959 104.51 81.6031 105.865C81.288 106.691 81.0992 107.559 81.0431 108.441C80.8863 111.499 80.0295 115.721 78.0471 117.961C76.9271 119.21 75.3759 120.073 74.7375 121.629C74.1775 122.979 74.4687 124.581 73.9479 125.947C73.4831 127.151 72.4583 128.008 71.7079 129.055C70.9434 130.243 70.4935 131.606 70.4004 133.015C70.3074 134.425 70.5742 135.835 71.1759 137.113C71.7819 138.359 72.6351 139.468 73.6836 140.373C74.732 141.278 75.9537 141.96 77.2743 142.377C79.8901 143.173 82.6795 143.2 85.3103 142.456C87.2847 141.984 89.1265 141.07 90.6975 139.785C92.3049 138.472 93.4089 136.644 93.8223 134.61C94.2199 132.325 93.5815 130.001 93.1055 127.728C91.6159 120.543 92.0415 120.168 93.9231 113.498C93.9679 113.381 93.9903 113.257 94.0239 113.14C94.0575 113.022 94.0743 112.966 94.0967 112.877C94.1501 112.613 94.1783 112.345 94.1807 112.076C93.9059 112.178 93.6076 112.2 93.3209 112.138C93.0342 112.077 92.771 111.935 92.5623 111.729C92.3531 111.509 92.2072 111.237 92.1402 110.941C92.0731 110.645 92.0874 110.337 92.1815 110.049C92.3136 109.733 92.5105 109.449 92.7594 109.215C93.0083 108.98 93.3036 108.801 93.6263 108.688C94.2479 108.43 94.9143 108.296 95.5247 108.01C96.8183 107.394 97.7143 106.117 98.3247 104.779C98.8265 103.851 98.9814 102.775 98.7615 101.744Z" fill="#1A1A1A"/>
<path d="M94.1528 111.65C94.2711 111.825 94.3688 112.013 94.444 112.21C94.612 112.563 94.836 113.061 95.0824 113.638L95.1272 113.745H95.0096L94.4496 113.795C94.0632 113.795 93.7384 113.868 93.3576 113.862C93.3244 113.855 93.2937 113.839 93.2682 113.816C93.2428 113.794 93.2234 113.765 93.212 113.733C93.1953 113.682 93.1953 113.627 93.212 113.577C93.2249 113.501 93.2417 113.426 93.2624 113.353L93.3632 112.955C93.4138 112.69 93.4927 112.431 93.5984 112.182C93.5879 112.453 93.5485 112.721 93.4808 112.983L93.4024 113.381C93.3744 113.515 93.324 113.722 93.4024 113.705C93.6824 113.705 94.08 113.644 94.4496 113.621L95.0096 113.571L94.9368 113.694C94.696 113.134 94.4944 112.608 94.3768 112.244C94.2736 112.058 94.1981 111.858 94.1528 111.65Z" fill="#FC9C0C"/>
<path d="M74.9785 158.786L99.8145 158.03L110.622 200.22L108.634 248.615H95.5025L97.1097 201.25L87.5057 171.878L88.9841 250.491L75.7121 250.687L74.3177 176.795C74.2561 174.74 73.5841 170.109 73.8361 168.07L74.9785 158.786Z" fill="#1A1A1A"/>
<path d="M90.8095 172.477C90.403 172.503 89.9949 172.479 89.5943 172.405C88.8439 172.315 87.8191 172.158 86.6935 171.934C85.5679 171.71 84.5599 171.453 83.8319 171.245C83.4428 171.16 83.0663 171.024 82.7119 170.842C82.7119 170.758 84.5375 171.195 86.7775 171.649C89.0175 172.102 90.8207 172.393 90.8095 172.477Z" fill="#455A64"/>
<path d="M108.5 245.961C108.5 246.039 105.526 246.106 101.858 246.106C98.1904 246.106 95.2112 246.039 95.2112 245.961C95.2112 245.882 98.1848 245.815 101.858 245.815C105.532 245.815 108.5 245.877 108.5 245.961Z" fill="#455A64"/>
<path d="M88.8663 248.447C88.8663 248.531 85.9767 248.592 82.4151 248.592C78.8535 248.592 75.9695 248.531 75.9695 248.447C75.9695 248.363 78.8591 248.301 82.4151 248.301C85.9711 248.301 88.8663 248.368 88.8663 248.447Z" fill="#455A64"/>
<path d="M87.1527 248.245C87.0743 248.245 86.7271 231.07 86.3743 209.885C86.0215 188.701 85.8143 171.514 85.8871 171.514C85.9599 171.514 86.3183 188.684 86.6655 209.88C87.0127 231.076 87.2367 248.245 87.1527 248.245Z" fill="#455A64"/>
<path d="M106.736 245.961C106.73 245.884 106.73 245.807 106.736 245.731V245.059C106.736 244.454 106.781 243.586 106.814 242.483C106.893 240.243 107.005 236.989 107.145 233.002C107.447 224.983 107.873 213.929 108.337 201.726C108.337 201.609 108.337 201.497 108.337 201.396V201.435C105.397 189.675 102.737 179.001 100.805 171.279L98.5655 162.145C98.3079 161.076 98.1119 160.241 97.9719 159.659C97.9047 159.385 97.8599 159.172 97.8207 159.009C97.7989 158.937 97.7857 158.861 97.7815 158.785C97.8106 158.856 97.8331 158.929 97.8487 159.004C97.8935 159.161 97.9495 159.373 98.0279 159.642C98.1791 160.202 98.3975 161.053 98.6775 162.117C99.2375 164.279 100.027 167.393 101.013 171.229C102.961 178.945 105.649 189.591 108.629 201.368V201.407C108.629 201.508 108.629 201.625 108.629 201.737C108.13 213.94 107.677 224.989 107.346 233.008C107.173 237.001 107.027 240.232 106.926 242.483C106.87 243.603 106.825 244.454 106.797 245.059C106.797 245.345 106.764 245.569 106.758 245.731C106.759 245.808 106.752 245.885 106.736 245.961Z" fill="#455A64"/>
<path d="M102.452 200.41C101.509 200.72 100.537 200.936 99.5512 201.054C98.3416 201.261 97.3112 201.407 96.8464 201.429V201.317C96.9976 201.362 97.076 201.39 97.076 201.413C97.076 201.435 96.9808 201.413 96.824 201.413H96.488L96.824 201.312C97.2608 201.183 98.2912 200.97 99.5008 200.752C100.471 200.541 101.459 200.427 102.452 200.41Z" fill="#455A64"/>
<path d="M102.222 202.017C101.349 202.057 100.474 202.018 99.6072 201.9C98.7324 201.882 97.861 201.786 97.0032 201.614C98.7533 201.471 100.515 201.608 102.222 202.017Z" fill="#455A64"/>
<path opacity="0.2" d="M74.8721 159.676C75.1662 160.054 75.5367 160.365 75.9593 160.59C76.382 160.815 76.8473 160.948 77.3249 160.981C78.3251 161.099 79.3369 161.08 80.3321 160.925C86.7441 160.214 93.5369 159.558 99.8145 158.03C91.6889 158.483 83.1041 158.332 74.9785 158.786L74.8945 159.48" fill="black"/>
<g opacity="0.2">
<path d="M83.2439 171.128L87.8247 188.902L87.5055 171.878L83.2439 171.128Z" fill="black"/>
</g>
<rect x="48.1599" y="71.6799" width="26.88" height="26.88" rx="13.44" fill="#E8E8E8"/>
<g clip-path="url(#clip0_441_3135)">
<path d="M65.3499 78.0574C64.4816 78.0574 63.6856 78.3325 62.984 78.8751C62.3114 79.3953 61.8635 80.0579 61.5999 80.5397C61.3362 80.0579 60.8884 79.3953 60.2157 78.8751C59.5141 78.3325 58.7181 78.0574 57.8499 78.0574C55.427 78.0574 53.5999 80.0392 53.5999 82.6672C53.5999 85.5064 55.8793 87.4489 59.3301 90.3896C59.9161 90.889 60.5804 91.4551 61.2707 92.0588C61.3617 92.1385 61.4786 92.1824 61.5999 92.1824C61.7211 92.1824 61.838 92.1385 61.929 92.0588C62.6194 91.455 63.2836 90.889 63.8699 90.3893C67.3204 87.4489 69.5999 85.5064 69.5999 82.6672C69.5999 80.0392 67.7727 78.0574 65.3499 78.0574Z" fill="#1A1A1A"/>
</g>
<defs>
<clipPath id="clip0_441_3135">
<rect width="16" height="16" fill="white" transform="translate(53.5999 77.1199)"/>
</clipPath>
</defs>
</svg>
